<?xml version="1.0" standalone="no"?>
<!DOCTYPE svg PUBLIC "-//W3C//DTD SVG 20010904//EN"
 "http://www.w3.org/TR/2001/REC-SVG-20010904/DTD/svg10.dtd">
<svg version="1.0" xmlns="http://www.w3.org/2000/svg"
 width="500.000000pt" height="500.000000pt" viewBox="0 0 500.000000 500.000000"
 preserveAspectRatio="xMidYMid meet">
<metadata>
Created by potrace 1.11, written by Peter Selinger 2001-2013
</metadata>
<g transform="translate(0.000000,500.000000) scale(0.100000,-0.100000)"
fill="#000000" stroke="none">
<path d="M0 4680 l0 -320 320 0 320 0 0 320 0 320 -320 0 -320 0 0 -320z"/>
<path d="M930 4680 l0 -320 1715 0 1715 0 0 -1715 0 -1715 320 0 320 0 0 2035
0 2035 -2035 0 -2035 0 0 -320z"/>
<path d="M0 2035 l0 -2035 2035 0 2035 0 0 320 0 320 -1715 0 -1715 0 0 1715
0 1715 -320 0 -320 0 0 -2035z"/>
<path d="M3390 3971 c-47 -5 -65 -14 -121 -58 -51 -41 -72 -65 -89 -105 -31
-72 -36 -128 -16 -178 20 -50 20 -60 1 -60 -28 0 -16 -49 40 -156 70 -135 70
-156 10 -246 -39 -58 -51 -69 -97 -86 -29 -10 -81 -29 -116 -42 -124 -45 -215
-119 -254 -207 -43 -98 -118 -464 -118 -580 0 -35 -5 -83 -12 -108 -12 -44
-11 -46 15 -70 26 -25 26 -26 11 -65 -14 -34 -14 -45 -4 -70 8 -20 10 -49 5
-88 -9 -75 -9 -126 0 -185 7 -45 6 -51 -19 -73 -18 -17 -26 -35 -26 -57 0 -37
6 -47 41 -69 20 -13 34 -39 54 -100 36 -106 35 -185 -1 -241 -13 -20 -31 -65
-40 -100 -8 -34 -18 -70 -20 -79 -5 -17 32 -18 680 -18 679 0 686 0 686 20 0
11 5 20 10 20 6 0 10 -9 10 -21 0 -15 5 -20 23 -17 l22 3 3 967 2 968 -38 27
c-21 16 -99 69 -174 118 -134 89 -136 91 -158 148 -12 33 -31 64 -46 73 -20
14 -24 24 -24 64 0 91 11 137 35 148 15 7 27 28 38 69 24 83 22 113 -4 113
-18 0 -20 4 -14 23 31 94 9 184 -61 246 -38 33 -152 86 -173 79 -3 -1 -31 -4
-61 -7z m560 -2212 c0 -22 5 -49 10 -60 6 -11 12 -66 14 -123 3 -91 6 -108 31
-151 23 -39 26 -51 17 -66 -7 -10 -9 -25 -6 -32 3 -8 -2 -44 -10 -81 -9 -37
-16 -79 -16 -94 0 -15 -8 -40 -19 -55 l-18 -28 -7 32 c-3 17 -6 101 -6 185 0
124 -4 168 -21 229 -11 41 -19 90 -17 108 2 20 -3 38 -14 50 -28 27 -22 67 15
98 17 16 35 28 40 29 4 0 7 -18 7 -41z"/>
<path d="M3911 1684 c0 -11 3 -14 6 -6 3 7 2 16 -1 19 -3 4 -6 -2 -5 -13z"/>
<path d="M1984 3926 c-85 -22 -95 -28 -140 -76 -27 -28 -54 -64 -61 -78 -17
-37 -16 -104 2 -128 8 -10 15 -26 15 -35 0 -9 9 -24 20 -34 15 -14 18 -26 14
-60 -4 -28 -1 -51 10 -73 21 -40 21 -39 -11 -55 l-27 -15 41 -7 c29 -4 40 -11
37 -20 -3 -8 5 -16 20 -21 l26 -9 -30 -32 c-18 -20 -30 -43 -30 -60 0 -20 -3
-24 -9 -14 -5 7 -14 11 -20 7 -17 -11 -29 -74 -36 -200 -7 -109 -9 -121 -32
-144 -23 -23 -29 -24 -96 -18 -109 10 -149 23 -142 46 4 13 0 20 -14 25 -24 7
-33 41 -15 56 20 16 17 26 -8 32 -22 6 -23 10 -23 119 -1 62 -6 131 -12 153
-6 22 -17 67 -24 100 -13 65 -47 141 -84 191 -45 60 -206 85 -313 49 -23 -8
-49 -15 -56 -15 -7 0 -22 -10 -34 -23 l-22 -23 0 -992 c0 -546 3 -992 7 -992
21 0 164 102 239 170 48 44 89 78 91 76 3 -2 -1 -51 -8 -108 -15 -131 -7 -312
26 -573 13 -110 25 -203 25 -208 0 -4 217 -6 483 -5 l482 3 12 80 c42 285 -22
621 -166 868 -22 37 -38 67 -37 67 2 0 23 -7 46 -15 75 -27 99 -19 141 45 l17
25 -5 -27 c-9 -46 28 -32 48 17 l13 30 6 -50 c5 -34 3 -58 -6 -77 -23 -45 -18
-61 15 -53 16 3 32 2 35 -3 8 -13 44 -4 76 19 24 17 25 21 25 141 0 68 4 215
9 328 7 165 5 238 -8 373 -12 124 -13 173 -5 188 6 12 8 32 5 45 -4 16 1 38
16 64 l23 40 -25 46 c-13 25 -50 73 -82 106 -60 61 -78 91 -78 134 0 22 4 24
49 24 54 0 67 9 108 73 23 36 24 43 13 85 -6 25 -14 83 -17 129 -6 89 -28 141
-64 150 -10 3 -19 14 -19 24 0 11 -4 19 -9 19 -5 0 -12 8 -15 18 -4 10 -42 34
-94 57 -112 51 -186 56 -318 21z m382 -1762 c-3 -12 -24 -36 -45 -53 l-39 -31
-12 35 c-12 35 -11 37 28 73 25 24 45 53 53 82 l14 45 3 -65 c2 -35 1 -74 -2
-86z m-1316 -28 c0 -7 27 -42 60 -78 l59 -65 -63 -45 c-35 -25 -73 -49 -86
-53 -22 -7 -23 -6 -16 31 3 22 12 81 18 132 7 50 16 92 20 92 4 0 8 -6 8 -14z"/>
<path d="M4360 320 l0 -320 320 0 320 0 0 320 0 320 -320 0 -320 0 0 -320z"/>
</g>
</svg>
