<?xml version="1.0" standalone="no"?>
<!DOCTYPE svg PUBLIC "-//W3C//DTD SVG 20010904//EN"
 "http://www.w3.org/TR/2001/REC-SVG-20010904/DTD/svg10.dtd">
<svg version="1.0" xmlns="http://www.w3.org/2000/svg"
 width="500.000000pt" height="500.000000pt" viewBox="0 0 500.000000 500.000000"
 preserveAspectRatio="xMidYMid meet">
<metadata>
Created by potrace 1.11, written by Peter Selinger 2001-2013
</metadata>
<g transform="translate(0.000000,500.000000) scale(0.100000,-0.100000)"
fill="#000000" stroke="none">
<path d="M361 3851 l-31 -29 0 -1164 c0 -1038 2 -1166 16 -1186 38 -55 -36
-52 1389 -52 l1315 0 0 -235 0 -236 25 -24 24 -25 681 0 681 0 24 25 25 24 0
616 0 615 75 0 c67 0 79 3 100 25 l25 24 0 521 0 521 -25 24 -24 25 -221 0
-221 0 -24 -25 -25 -24 0 -241 0 -240 -119 0 -118 0 -7 46 c-3 26 -6 260 -6
520 l0 472 -31 26 -31 26 -1733 0 -1733 0 -31 -29z m3266 -126 c-15 -14 -39
-25 -53 -25 -27 0 -29 -24 -3 -26 8 -1 20 -2 27 -3 29 -3 9 -21 -23 -21 -41 0
-43 -5 -12 -31 30 -25 151 -27 165 -2 6 10 16 14 26 10 15 -6 16 -45 14 -414
-3 -350 -5 -408 -17 -405 -35 8 -92 3 -106 -8 -21 -17 -45 -6 -38 18 4 18 11
20 64 15 38 -3 59 -1 59 6 0 6 -6 11 -12 11 -9 0 -9 3 1 9 11 7 3 12 -28 21
-23 6 -48 9 -54 7 -7 -2 -23 1 -37 8 -14 7 -52 16 -85 20 -81 8 -155 25 -155
35 0 13 28 20 76 20 49 0 134 20 134 31 0 5 -19 9 -42 11 -36 2 -44 7 -46 26
-2 12 -7 22 -11 22 -5 0 -20 12 -35 26 -21 21 -29 24 -40 15 -8 -7 -36 -11
-63 -9 -40 2 -48 6 -51 24 -2 12 -18 29 -38 40 -35 19 -36 19 -54 -3 -14 -18
-29 -23 -64 -23 -50 0 -67 13 -36 30 11 6 18 15 15 19 -7 13 56 61 81 61 12 0
40 7 63 15 37 13 66 15 169 15 18 0 40 -8 52 -20 11 -11 31 -22 45 -26 14 -3
25 -9 25 -13 0 -10 96 -8 106 2 4 4 20 7 36 7 18 0 28 5 28 15 0 25 -31 31
-47 9 -14 -18 -15 -18 -39 11 -29 36 -27 47 13 57 40 10 65 48 57 87 -6 27
-11 31 -41 31 -19 0 -32 -4 -28 -9 9 -15 -38 -76 -60 -78 -84 -8 -175 -29
-175 -40 0 -27 -115 1 -165 41 -17 13 -18 17 -5 26 8 5 35 12 60 15 25 3 59
12 75 20 49 22 74 24 103 9 15 -8 50 -14 79 -14 42 0 54 4 63 20 9 16 8 20 -5
20 -8 0 -15 7 -15 15 0 9 -8 18 -17 22 -10 4 -32 18 -49 33 -27 23 -43 28
-115 33 -64 5 -86 3 -94 -7 -17 -22 -89 -39 -129 -32 -20 4 -36 10 -36 14 0 7
-70 27 -123 36 -9 1 -23 8 -29 14 -9 9 -7 16 10 28 33 23 27 36 -13 28 -28 -5
-35 -3 -35 10 0 21 -31 36 -74 36 -26 0 -36 4 -36 16 0 11 6 14 20 9 12 -4 31
0 43 8 12 8 37 16 55 19 29 4 32 2 27 -16 -5 -18 -4 -19 7 -6 9 10 27 14 53
12 30 -2 47 3 64 18 23 19 36 20 285 20 l261 -1 -28 -24z m-3078 -54 c24 -23
43 -30 95 -36 53 -5 67 -11 81 -31 9 -14 13 -29 10 -34 -10 -16 -95 -12 -101
4 -4 10 -23 13 -75 11 l-69 -3 0 59 c0 69 11 75 59 30z m1931 -31 c4 0 11 -17
15 -37 10 -57 36 -113 51 -113 8 0 14 -4 14 -9 0 -6 11 -6 29 0 19 7 32 20 36
37 5 20 8 23 15 11 5 -7 7 -22 4 -32 -4 -13 0 -20 15 -24 12 -3 21 -12 21 -19
0 -8 7 -14 16 -14 9 0 18 -9 21 -20 3 -11 11 -20 17 -20 7 0 36 -11 64 -25 54
-26 96 -32 107 -15 13 22 130 7 121 -15 -4 -12 52 -35 90 -35 18 -1 18 -1 0
-15 -11 -8 -35 -15 -53 -15 -30 0 -46 -14 -24 -22 19 -7 -2 -59 -27 -69 -26
-10 -99 -3 -117 11 -5 4 -37 15 -70 25 -33 9 -78 30 -99 46 -22 16 -43 29 -46
29 -3 0 -7 -33 -8 -74 -3 -84 -5 -81 100 -162 107 -83 293 -189 438 -250 l55
-23 -52 -1 c-30 0 -71 8 -99 21 l-48 20 19 -23 20 -22 -27 17 c-16 10 -28 13
-28 7 0 -6 7 -13 15 -16 8 -4 15 -10 15 -15 0 -14 -31 2 -104 54 -37 26 -75
51 -85 55 -9 3 -23 13 -31 22 -8 9 -11 10 -6 3 5 -8 4 -13 -2 -13 -6 0 -14 9
-17 20 -3 11 -10 20 -15 20 -4 0 -22 14 -40 30 -33 30 -57 40 -44 18 4 -7 -8
2 -26 20 -22 21 -37 29 -44 22 -10 -10 29 -60 47 -60 5 0 18 -11 29 -25 11
-14 25 -25 33 -25 7 0 18 -7 25 -15 7 -8 22 -15 34 -16 13 0 16 -3 7 -6 -15
-6 56 -55 152 -104 31 -16 57 -34 57 -39 0 -23 -201 96 -332 196 l-48 36 0
-179 0 -180 23 3 c12 1 30 3 40 3 9 1 17 8 17 16 0 8 5 15 10 15 6 0 10 -6 10
-14 0 -21 48 -26 67 -7 12 12 17 13 21 3 2 -8 25 -12 67 -12 34 0 77 -3 94 -6
l31 -6 0 -353 0 -352 -61 -7 c-34 -3 -484 -6 -999 -6 -824 0 -939 2 -944 15
-3 8 -11 15 -17 15 -8 0 -8 -4 1 -15 11 -14 -18 -15 -266 -13 l-278 3 -1 497
c0 273 3 499 7 503 3 4 30 -5 60 -19 33 -15 80 -27 123 -31 88 -8 207 -26 220
-33 5 -3 22 -7 38 -9 16 -2 36 -7 45 -13 13 -7 2 -10 -38 -10 -30 0 -50 -4
-43 -8 6 -4 13 -20 15 -36 1 -16 10 -32 18 -34 13 -5 13 -3 1 12 -13 15 -13
19 0 27 8 5 20 9 27 9 7 0 21 5 31 12 14 8 29 8 64 0 68 -18 83 -15 119 19
l33 31 -100 -5 c-110 -4 -169 2 -146 17 25 16 201 25 238 12 19 -6 28 3 71 66
l50 74 5 110 c3 60 11 122 16 137 6 16 11 39 11 53 0 43 20 25 21 -18 0 -24 3
-37 6 -31 3 8 14 11 28 7 22 -6 25 -2 31 45 7 51 23 70 25 29 0 -19 3 -17 12
9 18 48 32 59 51 40 9 -9 16 -23 16 -32 0 -8 13 -45 30 -81 36 -79 58 -83 75
-14 l11 45 7 -50 c4 -27 11 -56 16 -63 11 -18 81 -5 81 14 0 8 7 14 15 14 8 0
15 8 15 18 1 15 2 15 15 -2 8 -11 15 -14 15 -8 0 7 5 12 10 12 6 0 10 -7 10
-15 0 -16 24 -14 120 12 30 8 78 19 105 23 28 5 80 17 118 27 l67 17 0 69 c0
38 7 96 15 128 9 33 15 65 14 72 -3 26 1 48 10 43 4 -3 11 -31 14 -62 7 -70
20 -85 37 -44 10 24 15 28 26 19 11 -9 19 -1 39 42 14 30 28 69 31 87 3 17 11
32 16 32 6 0 8 6 5 14 -3 8 -3 17 1 21 4 4 8 -7 10 -24 2 -17 7 -31 12 -31z
m-252 30 c1 -10 -10 -20 -30 -28 -39 -14 -55 -3 -38 28 13 25 63 25 68 0z
m608 -161 c16 -17 16 -22 4 -29 -35 -22 -114 -3 -104 25 5 12 18 16 70 24 6 0
19 -8 30 -20z m-1442 -9 c5 -5 6 -20 2 -33 -8 -33 -53 -42 -103 -21 -49 21
-48 19 -28 50 16 25 20 26 68 20 29 -4 56 -11 61 -16z m552 -184 c10 -8 17
-17 14 -20 -10 -10 -50 6 -50 20 0 18 11 18 36 0z m-196 -67 c0 -18 -35 -5
-38 14 -3 16 -1 17 17 7 12 -6 21 -15 21 -21z m2740 -29 c0 -5 -22 -10 -50
-10 -27 0 -50 5 -50 10 0 6 23 10 50 10 28 0 50 -4 50 -10z m-45 -70 c17 -7
14 -9 -13 -9 -20 -1 -31 3 -27 9 7 12 13 12 40 0z m225 -39 c0 -17 -3 -18 -25
-8 -21 10 -22 13 -7 19 27 11 32 9 32 -11z m-310 0 c0 -12 -20 -25 -27 -18 -7
7 6 27 18 27 5 0 9 -4 9 -9z m120 -46 c10 -31 40 -50 40 -25 0 6 5 10 10 10 6
0 10 -6 10 -14 0 -21 69 -60 102 -58 26 2 28 0 28 -37 l0 -40 -39 14 c-22 7
-49 19 -60 25 -19 10 -21 8 -21 -19 0 -21 10 -38 38 -62 20 -18 36 -37 34 -42
-1 -5 2 -6 7 -3 18 11 41 -6 41 -31 0 -24 -1 -24 -60 18 -33 23 -62 40 -65 37
-3 -2 25 -26 62 -51 37 -26 63 -47 57 -47 -6 0 -29 13 -50 28 -67 48 -64 50
-64 -26 l0 -69 60 4 60 5 0 -165 c0 -163 0 -165 -22 -169 -41 -8 -315 -10
-371 -3 l-55 7 -4 142 c-2 77 -2 149 0 159 3 13 15 17 53 17 37 0 49 4 49 15
0 10 10 15 29 15 l29 0 -2 81 -1 81 -40 -6 c-22 -3 -59 -8 -81 -12 l-42 -6 4
33 c5 40 11 44 91 59 l63 12 1 37 c1 20 4 50 8 66 6 28 7 28 13 7 9 -31 34
-19 50 23 14 40 22 37 38 -10z m135 -24 c3 -5 1 -13 -5 -16 -15 -9 -43 3 -35
15 8 13 32 13 40 1z m-3341 -7 c9 -3 16 -12 16 -19 0 -9 -18 -12 -65 -11 -36
0 -65 2 -65 3 0 1 12 9 28 17 29 16 61 20 86 10z m2971 -74 c3 -5 1 -10 -4
-10 -6 0 -11 5 -11 10 0 6 2 10 4 10 3 0 8 -4 11 -10z m-718 -164 c4 -3 -53
-6 -126 -6 -73 0 -130 4 -127 8 6 9 244 8 253 -2z m60 -2 c-3 -3 -12 -4 -19
-1 -8 3 -5 6 6 6 11 1 17 -2 13 -5z m723 -44 c0 -5 -12 -10 -26 -10 -14 0 -23
4 -19 10 3 6 15 10 26 10 10 0 19 -4 19 -10z m-170 -140 c0 -15 -44 -30 -71
-23 -43 9 -50 13 -44 23 8 13 115 13 115 0z m-190 -80 c13 -8 12 -11 -5 -24
-36 -28 -70 -12 -39 18 18 18 23 19 44 6z m201 -36 c9 -11 14 -57 17 -143 5
-150 16 -171 89 -171 42 0 43 -1 43 -34 0 -25 7 -40 28 -58 15 -12 28 -34 29
-48 l2 -25 -24 30 c-13 16 -28 26 -32 21 -4 -4 8 -20 27 -36 40 -32 37 -51 -3
-20 -39 31 -41 8 -2 -30 35 -34 50 -66 18 -38 -43 36 -43 36 -43 -106 l0 -136
30 0 30 0 -1 -320 0 -320 -580 0 -579 0 0 428 0 427 25 37 c21 30 25 49 25
105 0 71 19 173 32 173 5 0 8 -11 8 -25 0 -18 5 -25 19 -25 20 0 31 18 31 51
0 10 5 19 11 19 5 0 7 -6 3 -12 -4 -7 -4 -10 1 -6 4 4 13 17 19 29 21 41 30
32 66 -63 28 -73 60 -76 60 -6 0 27 13 15 17 -15 8 -57 12 -65 35 -60 13 3 33
17 46 32 19 21 25 23 32 11 6 -8 10 -10 10 -5 0 6 4 5 8 -2 5 -9 23 -8 72 3
36 9 88 19 115 24 28 5 69 14 93 21 42 11 42 12 42 57 0 43 16 149 28 182 3 8
9 -10 15 -40 9 -50 10 -53 24 -35 8 11 20 19 28 17 8 -1 22 22 36 63 13 36 27
65 30 65 4 0 13 -7 20 -16z m-863 -99 c17 -5 22 -13 20 -28 -3 -25 -25 -32
-74 -22 -38 7 -47 36 -16 54 17 10 23 10 70 -4z m457 -155 c3 -5 -3 -10 -14
-10 -12 0 -21 5 -21 10 0 6 6 10 14 10 8 0 18 -4 21 -10z m-161 -39 c3 -4 3
-11 0 -14 -8 -8 -34 3 -34 14 0 11 27 12 34 0z m-364 -186 c10 -12 10 -15 -4
-15 -9 0 -16 7 -16 15 0 8 2 15 4 15 2 0 9 -7 16 -15z"/>
<path d="M3293 3186 c-9 -11 -8 -15 9 -19 31 -8 51 2 37 19 -14 17 -30 17 -46
0z"/>
<path d="M3476 3181 c-9 -14 4 -41 19 -41 7 0 18 7 25 15 10 12 10 15 -4 15
-9 0 -16 5 -16 10 0 12 -17 13 -24 1z"/>
<path d="M2670 3085 c1 -18 76 -82 86 -73 2 3 -17 24 -41 48 -36 35 -45 40
-45 25z"/>
<path d="M2095 3060 c-82 -15 -209 -38 -281 -50 l-132 -22 -6 -52 c-3 -28 -6
-79 -6 -113 0 -56 2 -62 23 -65 16 -2 23 -11 25 -30 3 -21 9 -28 25 -28 15 0
28 -11 41 -34 15 -28 27 -36 60 -43 22 -4 51 -6 64 -5 12 2 22 -2 22 -8 0 -8
31 -11 96 -9 101 3 124 14 103 52 -11 19 -1 21 84 17 l47 -2 0 211 c0 116 -3
211 -7 210 -5 0 -75 -13 -158 -29z m20 -255 c0 -12 -120 -19 -155 -9 -22 7
-20 9 20 15 62 9 135 6 135 -6z"/>
<path d="M2739 3056 c26 -28 31 -31 31 -17 0 5 -12 17 -27 26 l-28 18 24 -27z"/>
<path d="M2780 3021 c0 -5 5 -13 10 -16 6 -3 10 -2 10 4 0 5 -4 13 -10 16 -5
3 -10 2 -10 -4z"/>
<path d="M2810 2986 c0 -8 82 -56 88 -52 5 3 21 -6 37 -20 15 -13 30 -22 33
-19 9 8 -52 55 -65 50 -7 -2 -13 1 -13 7 0 6 -3 8 -7 5 -3 -4 -11 0 -17 8 -9
13 -56 30 -56 21z"/>
<path d="M1301 2891 c-21 -40 -21 -41 -2 -60 18 -18 19 -17 24 37 3 31 4 58 2
60 -2 2 -13 -14 -24 -37z"/>
<path d="M3010 2880 c0 -9 39 -25 46 -18 2 3 -7 10 -21 16 -14 6 -25 7 -25 2z"/>
<path d="M2965 2859 c11 -11 32 -27 47 -35 25 -13 28 -13 28 0 0 16 -18 28
-66 47 l-28 10 19 -22z"/>
<path d="M3140 2820 c8 -5 20 -10 25 -10 6 0 3 5 -5 10 -8 5 -19 10 -25 10 -5
0 -3 -5 5 -10z"/>
<path d="M990 2580 c0 -6 7 -10 15 -10 8 0 15 2 15 4 0 2 -7 6 -15 10 -8 3
-15 1 -15 -4z"/>
<path d="M2385 2530 c3 -5 8 -10 11 -10 2 0 4 5 4 10 0 6 -5 10 -11 10 -5 0
-7 -4 -4 -10z"/>
<path d="M1304 2479 c-3 -6 -1 -16 5 -22 8 -8 11 -5 11 11 0 24 -5 28 -16 11z"/>
<path d="M2790 2481 c0 -6 4 -13 10 -16 6 -3 7 1 4 9 -7 18 -14 21 -14 7z"/>
<path d="M1010 2450 c0 -5 5 -10 10 -10 6 0 10 5 10 10 0 6 -4 10 -10 10 -5 0
-10 -4 -10 -10z"/>
<path d="M568 2433 c7 -3 16 -2 19 1 4 3 -2 6 -13 5 -11 0 -14 -3 -6 -6z"/>
<path d="M2145 2300 c-3 -5 -1 -10 4 -10 6 0 11 5 11 10 0 6 -2 10 -4 10 -3 0
-8 -4 -11 -10z"/>
<path d="M1007 2260 c-3 -11 -2 -20 3 -20 12 0 31 26 23 33 -11 12 -21 7 -26
-13z"/>
<path d="M2125 2270 c-4 -6 -4 -14 -1 -19 4 -5 0 -12 -6 -14 -16 -7 9 -27 32
-26 10 0 8 3 -5 9 -14 6 -15 9 -5 9 20 1 23 38 5 45 -8 3 -17 1 -20 -4z"/>
<path d="M2810 2270 c0 -5 -7 -7 -15 -4 -8 4 -15 1 -15 -5 0 -6 11 -11 23 -11
14 0 24 6 24 15 0 8 -4 15 -9 15 -4 0 -8 -4 -8 -10z"/>
<path d="M1767 2240 c-3 -12 0 -20 8 -20 14 0 27 25 18 34 -11 11 -21 6 -26
-14z"/>
<path d="M2780 2228 c0 -12 38 -10 45 2 4 6 -5 9 -19 8 -15 -1 -26 -6 -26 -10z"/>
<path d="M1015 2220 c-3 -5 1 -10 10 -10 9 0 13 5 10 10 -3 6 -8 10 -10 10 -2
0 -7 -4 -10 -10z"/>
<path d="M1279 2221 c12 -8 51 -4 51 5 0 2 -15 4 -32 4 -23 0 -29 -3 -19 -9z"/>
<path d="M1323 2197 c4 -11 3 -16 -3 -12 -5 3 -18 1 -27 -4 -15 -9 -13 -10 14
-11 38 0 47 10 25 30 -14 13 -15 12 -9 -3z"/>
<path d="M2770 2200 c0 -5 16 -10 35 -10 19 0 35 -4 35 -10 0 -5 14 -10 30
-10 17 0 30 5 30 10 0 6 -11 8 -25 4 -20 -5 -24 -3 -19 10 5 13 -2 16 -40 16
-25 0 -46 -4 -46 -10z"/>
<path d="M530 2190 c-12 -8 -11 -10 8 -10 12 0 22 5 22 10 0 13 -11 13 -30 0z"/>
<path d="M1003 2193 c9 -2 23 -2 30 0 6 3 -1 5 -18 5 -16 0 -22 -2 -12 -5z"/>
<path d="M1763 2183 c9 -2 23 -2 30 0 6 3 -1 5 -18 5 -16 0 -22 -2 -12 -5z"/>
<path d="M978 2163 c12 -2 30 -2 40 0 9 3 -1 5 -23 4 -22 0 -30 -2 -17 -4z"/>
<path d="M1753 2163 c9 -2 23 -2 30 0 6 3 -1 5 -18 5 -16 0 -22 -2 -12 -5z"/>
<path d="M2758 2153 c18 -2 45 -2 60 0 15 2 0 4 -33 4 -33 0 -45 -2 -27 -4z"/>
<path d="M1740 2125 c-11 -13 -10 -14 4 -9 9 3 16 10 16 15 0 13 -6 11 -20 -6z"/>
<path d="M2105 2130 c28 -12 47 -12 40 0 -3 6 -18 10 -33 9 -24 0 -25 -1 -7
-9z"/>
<path d="M1775 2115 c-27 -13 -28 -14 -7 -15 13 0 30 7 38 15 19 18 9 18 -31
0z"/>
<path d="M2730 2123 c0 -1 10 -8 23 -14 27 -16 78 -13 95 5 11 11 2 13 -52 12
-36 -1 -66 -2 -66 -3z"/>
<path d="M993 2113 c9 -2 25 -2 35 0 9 3 1 5 -18 5 -19 0 -27 -2 -17 -5z"/>
<path d="M1298 2113 c6 -2 18 -2 25 0 6 3 1 5 -13 5 -14 0 -19 -2 -12 -5z"/>
<path d="M1005 2060 l-30 -8 30 -1 c17 0 37 4 45 9 13 9 13 10 0 9 -8 -1 -28
-5 -45 -9z"/>
<path d="M1760 2060 c-21 -7 -21 -8 -5 -9 11 0 27 4 35 9 18 11 5 11 -30 0z"/>
<path d="M2785 2041 c-36 -4 -45 -8 -32 -13 36 -15 122 -5 111 13 -3 5 -11 8
-17 7 -7 0 -34 -4 -62 -7z"/>
<path d="M2800 1950 c0 -5 5 -10 11 -10 5 0 7 5 4 10 -3 6 -8 10 -11 10 -2 0
-4 -4 -4 -10z"/>
<path d="M4590 2506 c0 -2 7 -7 16 -10 8 -3 12 -2 9 4 -6 10 -25 14 -25 6z"/>
<path d="M4588 2463 c6 -2 18 -2 25 0 6 3 1 5 -13 5 -14 0 -19 -2 -12 -5z"/>
<path d="M3730 2023 c-107 -19 -196 -36 -198 -38 -2 -2 -7 -42 -9 -89 -6 -83
-5 -86 16 -86 14 0 21 -6 21 -20 0 -11 5 -20 12 -20 6 0 24 -14 38 -32 22 -26
34 -32 68 -32 23 -1 42 -5 42 -9 0 -4 35 -7 78 -5 69 3 77 5 77 23 0 26 28 37
71 29 l34 -6 0 161 0 161 -27 -1 c-16 0 -116 -16 -223 -36z m135 -172 c10 -18
-14 -22 -77 -14 -58 7 -60 8 -28 14 54 10 98 10 105 0z"/>
<path d="M3227 1906 c-15 -32 -15 -34 4 -39 16 -4 19 0 19 34 0 21 -1 39 -3
39 -2 0 -11 -15 -20 -34z"/>
<path d="M3235 1591 c-3 -5 -1 -12 5 -16 5 -3 10 1 10 9 0 18 -6 21 -15 7z"/>
<path d="M3870 1413 c0 -10 7 -27 15 -37 14 -19 15 -18 15 17 0 26 -4 37 -15
37 -8 0 -15 -8 -15 -17z"/>
<path d="M3595 1409 c-4 -6 -5 -13 -2 -16 7 -7 27 6 27 18 0 12 -17 12 -25 -2z"/>
<path d="M3215 1390 c3 -5 10 -10 16 -10 5 0 9 5 9 10 0 6 -7 10 -16 10 -8 0
-12 -4 -9 -10z"/>
<path d="M3230 1360 c-12 -8 -11 -10 7 -10 12 0 25 5 28 10 8 13 -15 13 -35 0z"/>
<path d="M3581 1326 c-10 -11 -8 -16 9 -21 12 -4 24 -4 27 -1 4 3 -1 6 -10 6
-20 0 -23 16 -4 23 7 4 8 6 1 6 -6 1 -17 -5 -23 -13z"/>
<path d="M3858 1323 c6 -2 18 -2 25 0 6 3 1 5 -13 5 -14 0 -19 -2 -12 -5z"/>
<path d="M3228 1303 c7 -3 16 -2 19 1 4 3 -2 6 -13 5 -11 0 -14 -3 -6 -6z"/>
<path d="M3588 1263 c6 -2 18 -2 25 0 6 3 1 5 -13 5 -14 0 -19 -2 -12 -5z"/>
</g>
</svg>
